<svg width="90" height="86" viewBox="0 0 90 86" fill="none" xmlns="http://www.w3.org/2000/svg">
<path d="M88.5351 51.1361C88.6139 50.7269 88.6882 50.3162 88.7553 49.9032C89.1219 47.644 89.3192 45.3287 89.3192 42.9663V42.6571C89.3192 41.3769 89.2534 40.1137 89.1448 38.8635C86.9165 23.8242 73.9554 12.2832 58.2962 12.2832C49.4731 12.2832 41.5119 15.9525 35.8383 21.8414C38.3946 20.7721 41.2929 20.1739 44.505 20.1739C57.4415 20.1739 66.2187 30.8005 66.2187 42.9663V43.2732C66.2187 55.4392 58.2111 65.7587 44.813 65.7587C40.6641 65.7587 36.946 64.6611 33.8048 62.7746C30.6529 60.8816 28.087 58.1905 26.2575 55.0029C24.2944 50.751 23.1916 46.0204 23.1916 41.0296C23.1916 40.7549 23.2055 40.4836 23.2121 40.2106C23.248 38.7287 23.3895 37.2737 23.6122 35.8457L23.604 35.848C23.604 35.848 13.5828 84.3484 69.8148 78.6859H69.8149C79.5335 72.4219 86.3283 62.5897 88.5351 51.1361Z" fill="url(#paint0_linear_601_95)"/>
<path d="M23.6126 35.8456C26.1041 19.8729 39.903 7.64677 56.5744 7.64677C56.9354 7.64677 57.2907 7.66882 57.6489 7.68025C68.5701 8.02726 78.1662 13.6077 84.0032 22.0097C76.6486 8.84483 62.2789 0 44.8131 0C30.3314 0 17.9501 6.10467 9.89512 15.673C3.64565 23.0965 0 32.6049 0 42.966V43.2729C0 66.9887 18.9411 85.9318 44.5051 85.9318C54.0765 85.9318 62.723 83.257 69.8152 78.6857H69.8151C13.583 84.3482 23.6044 35.8479 23.6044 35.8479L23.6126 35.8456Z" fill="url(#paint1_linear_601_95)"/>
<defs>
<linearGradient id="paint0_linear_601_95" x1="39.3891" y1="74.6965" x2="73.2332" y2="16.0769" gradientUnits="userSpaceOnUse">
<stop stop-color="#00B0FF"/>
<stop offset="1" stop-color="#2660FF"/>
</linearGradient>
<linearGradient id="paint1_linear_601_95" x1="42.0018" y1="85.9319" x2="42.0018" y2="0.000143414" gradientUnits="userSpaceOnUse">
<stop stop-color="#2660FF"/>
<stop offset="0.0001" stop-color="#2660FF"/>
<stop offset="1" stop-color="#00B0FF"/>
</linearGradient>
</defs>
</svg>
